<svg id="グループ_11" data-name="グループ 11" xmlns="http://www.w3.org/2000/svg" xmlns:xlink="http://www.w3.org/1999/xlink" width="552.856" height="619.007" viewBox="0 0 552.856 619.007">
  <defs>
    <clipPath id="clip-path">
      <rect id="長方形_1" data-name="長方形 1" width="552.856" height="619.007" fill="none"/>
    </clipPath>
    <clipPath id="clip-path-2">
      <path id="パス_30" data-name="パス 30" d="M12.036,135.5l-1.208,22.724c1.052,82.3,66.493,93.293,167.036,93.293,106.188,0,173.21-12.251,166.615-107.811-5.182-75.024-60-112.848-166.615-112.848C75.217,30.855,20.585,65.92,12.036,135.5" transform="translate(-10.828 -30.855)" fill="none"/>
    </clipPath>
    <clipPath id="clip-path-4">
      <rect id="長方形_3" data-name="長方形 3" width="70.058" height="41.528" fill="none"/>
    </clipPath>
  </defs>
  <g id="グループ_2" data-name="グループ 2">
    <g id="グループ_1" data-name="グループ 1" clip-path="url(#clip-path)">
      <path id="パス_1" data-name="パス 1" d="M11.331,164.444c0-24.581,3.21-93.8,202.877-93.8s207.361,58.865,202.883,93.8Z" transform="translate(56.786 354.014)" fill="#be6ba6" fill-rule="evenodd"/>
      <path id="パス_2" data-name="パス 2" d="M241.68,114.048c0,26.276-48,47.575-107.216,47.575s-107.222-21.3-107.222-47.575,48-47.575,107.222-47.575,107.216,21.3,107.216,47.575" transform="translate(136.529 333.131)" fill="#be6ba6" fill-rule="evenodd"/>
      <path id="パス_3" data-name="パス 3" d="M121.1,68.255c-50.148,0-90.8,15.516-90.8,34.65s40.656,34.656,90.8,34.656,90.8-15.516,90.8-34.656-40.656-34.65-90.8-34.65" transform="translate(151.819 342.062)" fill="#be6ba6" fill-rule="evenodd"/>
      <path id="パス_4" data-name="パス 4" d="M10.9,159.927c0-52.637,92.842-95.313,207.374-95.313S425.65,107.29,425.65,159.927ZM218.277,88.089c-50.148,0-90.8,15.516-90.8,34.65s40.656,34.656,90.8,34.656,90.8-15.516,90.8-34.656-40.656-34.65-90.8-34.65" transform="translate(54.641 323.815)" fill="#dbadce" fill-rule="evenodd"/>
      <path id="パス_5" data-name="パス 5" d="M428.5,166.075a3.425,3.425,0,0,1-3.427-3.427c0-22-17.89-43.379-50.377-60.205a3.428,3.428,0,0,1,3.15-6.09c34.873,18.065,54.08,41.606,54.08,66.3a3.425,3.425,0,0,1-3.427,3.427m-414.741,0a3.425,3.425,0,0,1-3.427-3.427c0-24.737,19.267-48.309,54.254-66.379a3.425,3.425,0,0,1,3.15,6.084c-32.6,16.838-50.551,38.251-50.551,60.3a3.425,3.425,0,0,1-3.427,3.427M86.849,93.438a3.428,3.428,0,0,1-1.25-6.619c37.812-14.776,85.941-22.91,135.53-22.91,49.361,0,97.321,8.067,135.037,22.724a3.425,3.425,0,1,1-2.483,6.384c-36.941-14.355-84.017-22.255-132.554-22.255-48.753,0-96,7.965-133.029,22.435a3.42,3.42,0,0,1-1.25.24" transform="translate(51.789 320.281)" fill="#040000"/>
      <path id="パス_6" data-name="パス 6" d="M131.615,72.924c-10.009-.126-19.922-.4-29.6-.932-23.836,19.057-53.442,69.493-63.788,100.8-5.837,5.969-11.879,17.283-14.368,30.34,16.393,4.839,35.931,8.753,57.632,11.452a141.583,141.583,0,0,1-.8-14.458c-.042-18.51,6.078-54.519,16.977-77.735,9.733-20.746,21.016-36.316,33.947-49.463" transform="translate(119.565 360.79)" fill="#f4dfec" fill-rule="evenodd"/>
      <path id="パス_7" data-name="パス 7" d="M26.719,209.408a3.37,3.37,0,0,1-.643-.06,3.434,3.434,0,0,1-2.729-4.01c2.344-12.27,7.953-24.244,14.728-31.5C49,141.4,78.755,91.335,102.735,72.171a3.426,3.426,0,0,1,4.274,5.356c-22.874,18.287-52.475,68.339-62.67,99.2a3.393,3.393,0,0,1-.806,1.317c-4.587,4.7-10.863,14.993-13.448,28.585a3.432,3.432,0,0,1-3.366,2.783" transform="translate(116.704 357.936)" fill="#040000"/>
      <path id="パス_8" data-name="パス 8" d="M113.28,72.721c-9.576,0-19.141-.048-28.591-.259-5.086,7.136-15,21.191-19.069,28.014C42.392,139.425,29.858,178.067,31.7,212.8a570.951,570.951,0,0,0,81.54,5.633,561.489,561.489,0,0,0,79.37-5.4c3.511-28.621-6.961-95.758-40.8-140.976-12.564.529-25.489.667-38.534.667" transform="translate(157.99 361.1)" fill="#f4dfec" fill-rule="evenodd"/>
      <path id="パス_9" data-name="パス 9" d="M34.524,185.255A3.427,3.427,0,0,1,31.1,182c-2.206-44.87,18.63-86.332,27.7-102.07a3.425,3.425,0,0,1,5.939,3.415C55.973,98.563,35.829,138.6,37.951,181.66a3.433,3.433,0,0,1-3.258,3.595h-.168" transform="translate(155.061 391.966)" fill="#040000"/>
      <path id="パス_10" data-name="パス 10" d="M145.713,176.221c-16.989-43.746-38.4-80.4-71.934-104.288-7.839.535-15.864.878-24.01,1.088,2.543,7.821,12.294,18.5,18.215,27.869,10.887,17.217,18.738,44.064,25.242,67.245,5,17.842-4.016,28.308,1.16,46.433,24-3.108,45.273-7.713,62.466-13.412-1.527-10.364-5.573-19.88-11.139-24.936" transform="translate(249.419 360.494)" fill="#f4dfec" fill-rule="evenodd"/>
      <path id="パス_11" data-name="パス 11" d="M74.674,181.785A3.437,3.437,0,0,1,71.38,179.3c-2.8-9.817-1.743-17.476-.721-24.882.95-6.889,1.852-13.394-.439-21.569-4.058-14.434-9.57-33.051-16.249-48.928a3.428,3.428,0,0,1,6.318-2.663c6.823,16.231,12.42,35.107,16.526,49.739,2.681,9.552,1.635,17.079.631,24.359-.968,7.009-1.882,13.634.529,22.062a3.431,3.431,0,0,1-3.3,4.37" transform="translate(269.125 396.704)" fill="#040000"/>
      <path id="パス_12" data-name="パス 12" d="M139.766,207.439a3.425,3.425,0,0,1-3.385-2.934c-1.437-9.793-5.29-18.57-10.057-22.9a3.394,3.394,0,0,1-.878-1.268c-13.863-34.837-34.434-78-70.768-102.713a3.427,3.427,0,0,1,3.853-5.669c37.626,25.6,58.781,69.517,73,105.142,5.681,5.543,10,15.335,11.626,26.415a3.423,3.423,0,0,1-2.892,3.889,3.546,3.546,0,0,1-.5.036" transform="translate(266.499 357.645)" fill="#040000"/>
      <path id="パス_13" data-name="パス 13" d="M115.769,37.131C62.561,23.2.57,68.379.57,129.5c0,66.4,44.179,110.9,118.992,97.91" transform="translate(2.857 173.368)" fill="#f4dfec" fill-rule="evenodd"/>
      <path id="パス_14" data-name="パス 14" d="M97.327,235.938c-25.14,0-46.8-7.2-63.554-21.3C11.993,196.316,0,167.088,0,132.341,0,102.5,14.283,74.354,39.2,55.123c23.92-18.461,53.923-25.375,80.29-18.473a3.427,3.427,0,0,1-1.737,6.631c-24.311-6.36-52.12.09-74.369,17.265C20.169,78.472,6.847,104.64,6.847,132.341c0,32.691,11.127,60.055,31.338,77.056,20.62,17.355,49.541,23.385,83.644,17.475A3.426,3.426,0,0,1,123,233.624a150.209,150.209,0,0,1-25.675,2.314" transform="translate(0 170.531)" fill="#040000"/>
      <path id="パス_15" data-name="パス 15" d="M49.473,78.288h-.09C30.23,77.819,17.059,74.6,5.342,67.521a3.426,3.426,0,1,1,3.541-5.867c10.773,6.5,22.555,9.342,40.674,9.781a3.427,3.427,0,0,1-.084,6.853" transform="translate(18.451 306.498)" fill="#040000"/>
      <path id="パス_16" data-name="パス 16" d="M43.076,74.7h0C28.143,74.689,12.79,70.547,3.015,63.892a3.429,3.429,0,0,1,3.859-5.669c8.566,5.837,22.778,9.612,36.2,9.624a3.427,3.427,0,0,1,0,6.853" transform="translate(7.613 288.81)" fill="#040000"/>
      <path id="パス_17" data-name="パス 17" d="M206.82,21.356c137.5,0,193.769,105.34,193.769,186.285,0,32.793-9.552,64.492-28.555,82.334-35.209,33.051-98.775,36.31-165.215,36.31-63.933,0-127.486-1.966-163.279-32.156-21.473-18.113-30.49-51.4-30.49-86.488,0-80.945,56.274-186.285,193.769-186.285" transform="translate(65.405 107.026)" fill="#f4dfec"/>
      <path id="パス_18" data-name="パス 18" d="M209.677,332.568c-66.4,0-129-2.5-165.155-32.685a3.425,3.425,0,0,1,4.388-5.26c34.4,28.717,95.673,31.092,160.766,31.092,63.337,0,128.088-2.729,162.87-35.378,17.2-16.147,27.473-45.994,27.473-79.839,0-73.5-50.7-182.859-190.343-182.859S19.334,136.995,19.334,210.5a3.427,3.427,0,1,1-6.853,0c0-76.256,52.517-189.712,197.2-189.712s197.2,113.455,197.2,189.712c0,35.7-11.079,67.413-29.637,84.835-36.6,34.362-102.845,37.235-167.559,37.235" transform="translate(62.549 104.17)" fill="#040000"/>
      <path id="パス_19" data-name="パス 19" d="M80.208,211.455c4.22,9.937,10.833,19.014,21.9,21.233,44.491,8.915,93.569-17.253,96.509-94.681,2.6-68.459-31.861-109.68-91.682-103.164C89.748,36.712,80.809,56.2,76.649,70.653c-7.057,24.467-7.328,56.268-6.132,81.474.757,15.858,1.467,32.378,5.8,47.936a92.844,92.844,0,0,0,3.9,11.392" transform="translate(350.674 171.238)" fill="#f4dfec" fill-rule="evenodd"/>
      <path id="パス_20" data-name="パス 20" d="M121.3,240.661a89.068,89.068,0,0,1-17.457-1.761c-7.382-1.485-16.814-5.278-24.269-21.617a4.055,4.055,0,0,1,.355-4,3.948,3.948,0,0,1,3.541-1.749c20.475,1.028,47.84-.391,57.62-7.731a3.428,3.428,0,0,1,4.118,5.483c-12.51,9.384-42.856,9.727-57.314,9.282,5.609,9.961,11.831,12.51,17.3,13.6,22.08,4.424,43.253-.24,59.622-13.141,20.1-15.846,31.44-42.928,32.781-78.306,1.389-36.442-7.713-64.87-26.324-82.208C156.107,44.385,134.814,38.355,109.7,41.1c-6.336.685-37.7,9.065-32.859,106.452a3.424,3.424,0,0,1-3.252,3.595A3.463,3.463,0,0,1,70,147.891C64.978,46.958,98.552,35.416,108.964,34.28c27.16-2.94,50.316,3.691,66.974,19.225,20.115,18.738,29.967,48.988,28.507,87.48-1.8,47.317-20.241,71.483-35.4,83.428a76.262,76.262,0,0,1-47.75,16.249" transform="translate(348.272 168.387)" fill="#040000"/>
      <path id="パス_21" data-name="パス 21" d="M70.767,64.957s29.589,2.573,56.25-5.669" transform="translate(354.65 297.123)" fill="#f4dfec" fill-rule="evenodd"/>
      <path id="パス_22" data-name="パス 22" d="M85.039,71.642c-6.805,0-11.248-.373-11.71-.415a3.424,3.424,0,1,1,.589-6.823c.289.018,29.264,2.4,54.945-5.537a3.428,3.428,0,0,1,2.02,6.553c-16.826,5.206-34.572,6.222-45.844,6.222" transform="translate(351.788 294.268)" fill="#040000"/>
      <path id="パス_23" data-name="パス 23" d="M90.163,84.906c-2.17-.072-3.932-8.458-3.932-18.738s1.761-18.546,3.932-18.479" transform="translate(432.149 238.989)" fill="#f4dfec" fill-rule="evenodd"/>
      <path id="パス_24" data-name="パス 24" d="M93.019,91.188H92.9c-5.987-.2-7.244-12.155-7.244-22.164,0-3.877.3-16.814,4.154-20.559a4.759,4.759,0,0,1,3.306-1.347,3.429,3.429,0,0,1,1.341,6.535c-.775,1.641-1.948,7.076-1.948,15.371,0,8.5,1.22,14.037,2.008,15.66a3.427,3.427,0,0,1-1.5,6.5" transform="translate(429.292 236.133)" fill="#040000"/>
      <line id="線_1" data-name="線 1" x2="0.283" y2="4.497" transform="translate(422.159 326.866)" fill="#f4dfec"/>
      <path id="パス_25" data-name="パス 25" d="M73.36,65.154a3.43,3.43,0,0,1-3.415-3.21l-.283-4.5a3.427,3.427,0,1,1,6.841-.433l.277,4.5a3.424,3.424,0,0,1-3.192,3.637c-.078.006-.15.006-.228.006" transform="translate(349.076 269.634)" fill="#040000"/>
      <path id="パス_26" data-name="パス 26" d="M215.421,146.844c-100.362,0-204.175-21.094-204.175-56.394a3.427,3.427,0,1,1,6.853,0c0,23.926,79.292,49.541,197.322,49.541S412.744,114.375,412.744,90.45a3.424,3.424,0,1,1,6.847,0c0,35.3-103.807,56.394-204.169,56.394" transform="translate(56.36 436.118)" fill="#040000"/>
      <path id="パス_27" data-name="パス 27" d="M12.042,135.5C20.585,65.92,75.211,30.855,177.864,30.855c106.614,0,161.427,37.824,166.609,112.848,6.595,95.559-60.422,107.811-166.609,107.811-100.543,0-165.984-10.989-167.036-93.293Z" transform="translate(54.265 154.631)" fill="#af9bc9" fill-rule="evenodd"/>
      <path id="パス_28" data-name="パス 28" d="M12.042,135.5C20.585,65.92,75.211,30.855,177.864,30.855c106.614,0,161.427,37.824,166.609,112.848,6.595,95.559-60.422,107.811-166.609,107.811-100.543,0-165.984-10.989-167.036-93.293Z" transform="translate(54.265 154.631)" fill="#3cb69b" fill-rule="evenodd"/>
    </g>
  </g>
  <g id="グループ_4" data-name="グループ 4" transform="translate(65.093 185.486)">
    <g id="グループ_3" data-name="グループ 3" clip-path="url(#clip-path-2)">
      <path id="パス_29" data-name="パス 29" d="M15.7,129.367c7.773-63.3,57.47-95.2,150.859-95.2,96.99,0,146.855,34.416,151.569,102.665,6,86.933-54.975,98.078-151.569,98.078-91.471,0-151-10-151.965-84.871Z" transform="translate(8.025 -14.252)" fill="#8fcebe" fill-rule="evenodd"/>
    </g>
  </g>
  <g id="グループ_6" data-name="グループ 6">
    <g id="グループ_5" data-name="グループ 5" clip-path="url(#clip-path)">
      <path id="パス_31" data-name="パス 31" d="M180.727,257.792c-92.589,0-169.321-7.274-170.469-96.671a3.427,3.427,0,0,1,6.853-.09c.974,76,55.865,89.908,163.616,89.908,70.251,0,118.89-5.464,144.289-32.673,14.933-16,21.118-39.375,18.9-71.471C338.818,73,285.436,37.133,180.727,37.133,79.83,37.133,26.694,70.383,18.3,138.77a3.425,3.425,0,0,1-6.8-.836C20.267,66.505,77.2,30.286,180.727,30.286c107.5,0,164.7,39.039,170.03,116.04,2.35,34.085-4.431,59.153-20.734,76.617-27.088,29.018-77.206,34.849-149.3,34.849" transform="translate(51.408 151.779)" fill="#040000"/>
      <path id="パス_32" data-name="パス 32" d="M115.172,99.44a11.3,11.3,0,0,1-10.562-7.274,53.518,53.518,0,0,0-45.4-34.115,11.3,11.3,0,0,1,2.146-22.507c29.342,2.8,54.008,21.407,64.371,48.561A11.308,11.308,0,0,1,115.172,99.44" transform="translate(245.471 177.847)" fill="#fff"/>
      <path id="パス_33" data-name="パス 33" d="M55.457,57.634h-.234a11.3,11.3,0,1,1,.234,0" transform="translate(220.111 175.529)" fill="#fff"/>
      <path id="パス_34" data-name="パス 34" d="M107.566,78.53c0,17.043-16.718,30.857-37.338,30.857S32.885,95.573,32.885,78.53,49.6,47.673,70.229,47.673s37.338,13.814,37.338,30.857" transform="translate(164.804 238.914)" fill="#040000" fill-rule="evenodd"/>
      <path id="パス_35" data-name="パス 35" d="M44.064,43.228c-12.227,0-22.14,13.189-22.14,29.462s9.913,29.468,22.14,29.468S66.2,88.97,66.2,72.69s-9.913-29.462-22.14-29.462" transform="translate(109.873 216.638)" fill="#040000" fill-rule="evenodd"/>
      <path id="パス_36" data-name="パス 36" d="M38.375,53.849c0,4.647-2.825,8.41-6.312,8.41s-6.306-3.763-6.306-8.41,2.825-8.41,6.306-8.41,6.312,3.763,6.312,8.41" transform="translate(129.082 227.719)" fill="#fff"/>
      <path id="パス_37" data-name="パス 37" d="M76.11,49.712c-14.668,0-26.565,15.828-26.565,35.354s11.9,35.354,26.565,35.354,26.559-15.828,26.559-35.354S90.772,49.712,76.11,49.712" transform="translate(248.296 249.133)" fill="#040000" fill-rule="evenodd"/>
      <path id="パス_38" data-name="パス 38" d="M69.239,62.479c0,5.681-3.451,10.28-7.713,10.28s-7.707-4.6-7.707-10.28S57.27,52.2,61.526,52.2s7.713,4.6,7.713,10.28" transform="translate(269.715 261.596)" fill="#fff"/>
      <path id="パス_39" data-name="パス 39" d="M53.641,55.481c0,2.952-3.282,5.344-7.334,5.344s-7.34-2.393-7.34-5.344,3.288-5.344,7.34-5.344,7.334,2.393,7.334,5.344" transform="translate(195.284 251.263)" fill="#fff"/>
      <path id="パス_40" data-name="パス 40" d="M125.448,76.351c0,19.141,40.656,34.65,90.8,34.65s90.8-15.51,90.8-34.65l108.8,46.74C432.3,181.1,326.371,231.9,214.322,231.9S-1.173,187.041,12.533,118.528Z" transform="translate(56.671 382.635)" fill="#be6ba6" fill-rule="evenodd"/>
      <path id="パス_41" data-name="パス 41" d="M217.064,200.313c-113.756,0-206.3-44.293-206.3-98.733a96.672,96.672,0,0,1,1.028-15.341,3.425,3.425,0,1,1,6.769,1.052,90.408,90.408,0,0,0-.944,14.289c0,50.665,89.476,91.88,199.45,91.88s199.45-41.215,199.45-91.88a98.757,98.757,0,0,0-.5-10.887,3.428,3.428,0,1,1,6.817-.727,106.356,106.356,0,0,1,.535,11.614c0,54.44-92.547,98.733-206.3,98.733" transform="translate(53.929 417.642)" fill="#040000"/>
      <path id="パス_42" data-name="パス 42" d="M309.081,74.275c0,19.141-40.656,34.65-90.8,34.65s-90.8-15.51-90.8-34.65L10.9,111.462c0,9.624,15.173,16.676,20.77,25.435,5.2,8.14,2.423,21.666,11.753,28.723,6.727,5.086,19.5,4.695,30.016,7.094l6.126,1.906c.3.132.6.258.89.4a51.925,51.925,0,0,1,5.573,3.084A37.672,37.672,0,0,1,99.5,197.09a38.825,38.825,0,0,1,1.605,10.785c0,4.773-3.4,8.416-5.561,12.522-2.056,3.9-2.344,8.452.06,12.306,3.126,5,9.781,11.3,16.9,11.3,14.632,0,23.1-15.985,15.594-25.573-2.242-2.867-3.559-5.645-3.559-9.168,0-3.024.523-7.118,2.351-9.534,2.477-3.27,8.633-4.9,14.319-4.99a49.522,49.522,0,0,1,5.609.685c11.59,2.14,21.509,13.658,34.031,14.752,11.9,1.04,24.888-8.416,37.422-8.416s25.525,9.456,37.428,8.416c12.516-1.094,22.441-12.612,34.031-14.752,12.348-2.284,27.9,4.43,38.919,1.094,11.939-3.619,17.4-16.8,27.437-21.5,11.109-5.2,28.711-3.1,37.037-9.4,9.33-7.058,6.553-20.583,11.753-28.723,5.6-8.759,20.77-15.81,20.77-25.435Z" transform="translate(54.641 372.231)" fill="#dbadce"/>
      <path id="パス_43" data-name="パス 43" d="M61.8,145.64a3.444,3.444,0,0,1-.487-.036c-5.855-.836-12.486-2.014-17.1-5.507-6.613-5-8.061-12.5-9.336-19.117-.769-3.992-1.5-7.767-3.24-10.49-1.906-2.994-5.4-6.03-8.777-8.957-6.156-5.35-12.528-10.881-12.528-18.323a3.427,3.427,0,1,1,6.853,0c0,4.316,5.17,8.807,10.171,13.147,3.745,3.252,7.617,6.619,10.057,10.442s3.336,8.434,4.2,12.883c1.142,5.927,2.218,11.53,6.739,14.951,2.982,2.254,7.725,3.306,13.935,4.184a3.429,3.429,0,0,1-.481,6.823" transform="translate(51.784 399.839)" fill="#040000"/>
      <path id="パス_44" data-name="パス 44" d="M57.494,167.958c-8.3,0-16.79-5.681-19.754-13.213-2.88-7.358.1-15.2,3.024-21.2,2.206-4.533,2.344-8.981.463-14.879a34.22,34.22,0,0,0-12.2-17.241,51.008,51.008,0,0,0-5.032-2.771,3.584,3.584,0,0,1-1.828-4.6,3.269,3.269,0,0,1,4.346-1.785L25.116,95.4l1.437-3.108a56.023,56.023,0,0,1,6.276,3.439,41.231,41.231,0,0,1,14.927,20.848c2.4,7.526,2.14,13.869-.824,19.958-2.459,5.044-4.707,10.857-2.807,15.7,1.918,4.887,7.917,8.867,13.37,8.867a14.694,14.694,0,0,0,14.259-12.252c.493-3.264-.992-6.763-2.567-10.466-2.453-5.777-5.5-12.967-.042-20.193,3.445-4.545,11.037-6.258,17-6.348a51.358,51.358,0,0,1,6.288.739c5.987,1.106,11.392,4.352,16.622,7.49,5.735,3.445,11.157,6.7,17.085,7.214,5.44.5,11.47-1.653,17.824-3.914,6.246-2.218,12.708-4.515,19.3-4.515s13.057,2.3,19.3,4.515c6.36,2.26,12.348,4.424,17.824,3.914,5.927-.517,11.35-3.769,17.091-7.214,5.224-3.138,10.628-6.384,16.616-7.49,6.432-1.184,13.37-.192,20.078.776,6.907,1,13.436,1.93,18.473.409,5.711-1.731,9.835-6.12,14.205-10.767,3.775-4.016,7.683-8.176,12.774-10.556A36.582,36.582,0,0,1,306.5,90.1a3.428,3.428,0,1,1,1.623,6.661,29.858,29.858,0,0,0-5.591,1.888c-3.907,1.828-7.208,5.338-10.695,9.047-4.563,4.857-9.745,10.364-17.2,12.63-6.5,1.972-14.1.878-21.443-.18-6.156-.89-12.534-1.8-17.854-.824-4.761.884-9.414,3.673-14.337,6.625-6.15,3.691-12.516,7.514-20.012,8.17-6.961.6-13.953-1.876-20.722-4.28-5.957-2.122-11.59-4.124-17.007-4.124s-11.037,2-17,4.118c-6.775,2.411-13.79,4.869-20.722,4.286-7.5-.655-13.857-4.479-20.012-8.17-4.923-2.952-9.576-5.741-14.343-6.625a45.072,45.072,0,0,0-5.218-.637c-4.923.09-9.817,1.617-11.356,3.643-2.928,3.871-1.635,7.43.89,13.376,1.785,4.214,3.811,8.993,3.03,14.175a21.677,21.677,0,0,1-21.034,18.077" transform="translate(109.656 451.048)" fill="#040000"/>
      <path id="パス_45" data-name="パス 45" d="M74.871,145.538a3.427,3.427,0,0,1-.493-6.817c5.062-.745,10.172-1.749,13.261-4.088,4.515-3.421,5.6-9.017,6.739-14.945.86-4.455,1.743-9.059,4.19-12.889s6.318-7.19,10.063-10.442c5-4.34,10.171-8.831,10.171-13.153a3.424,3.424,0,0,1,6.847,0c0,7.448-6.366,12.979-12.528,18.329-3.372,2.934-6.865,5.963-8.777,8.951-1.743,2.735-2.471,6.5-3.24,10.5C99.83,127.6,98.394,135.1,91.775,140.1c-4.322,3.27-10.442,4.527-16.405,5.4a3.546,3.546,0,0,1-.5.036" transform="translate(358.067 399.839)" fill="#040000"/>
      <path id="パス_46" data-name="パス 46" d="M123.955,115.081c-52.841,0-94.231-16.724-94.231-38.077a3.427,3.427,0,0,1,6.853,0c0,15.077,35.113,31.224,87.377,31.224S211.332,92.08,211.332,77a3.427,3.427,0,0,1,6.853,0c0,21.353-41.389,38.077-94.231,38.077" transform="translate(148.963 368.733)" fill="#040000"/>
      <path id="パス_47" data-name="パス 47" d="M123.955,115.081c-52.841,0-94.231-16.724-94.231-38.077a3.427,3.427,0,0,1,6.853,0c0,15.077,35.113,31.224,87.377,31.224S211.332,92.08,211.332,77a3.427,3.427,0,0,1,6.853,0c0,21.353-41.389,38.077-94.231,38.077" transform="translate(148.963 368.733)" fill="#040000"/>
    </g>
  </g>
  <g id="グループ_8" data-name="グループ 8" transform="translate(340.667 491.19)">
    <g id="グループ_7" data-name="グループ 7" clip-path="url(#clip-path-4)">
      <path id="パス_48" data-name="パス 48" d="M125.762,93.419c4.491,10.316-7.118,22.736-25.928,27.737s-37.7.691-42.2-9.624S64.751,88.8,83.561,83.794s37.71-.691,42.2,9.624" transform="translate(-56.672 -81.709)" fill="#fff" fill-rule="evenodd"/>
    </g>
  </g>
  <g id="グループ_10" data-name="グループ 10">
    <g id="グループ_9" data-name="グループ 9" clip-path="url(#clip-path)">
      <path id="パス_49" data-name="パス 49" d="M31.917,98.041a3.424,3.424,0,0,1-2-6.21L44.049,81.725a3.423,3.423,0,1,1,3.986,5.567L33.907,97.4a3.4,3.4,0,0,1-1.99.637" transform="translate(142.771 406.32)" fill="#aa539a"/>
      <path id="パス_50" data-name="パス 50" d="M47.085,102.283a3.429,3.429,0,0,1-1.822-6.336l14.764-9.228a3.429,3.429,0,1,1,3.637,5.813L48.9,101.76a3.41,3.41,0,0,1-1.815.523" transform="translate(218.775 432.021)" fill="#aa539a"/>
      <path id="パス_51" data-name="パス 51" d="M73.589,94.156a3.388,3.388,0,0,1-1.725-.469L59.985,86.75a3.428,3.428,0,1,1,3.457-5.921l11.873,6.943a3.424,3.424,0,0,1-1.725,6.384" transform="translate(292.104 402.738)" fill="#aa539a"/>
      <path id="パス_52" data-name="パス 52" d="M45.067,103.9a3.433,3.433,0,0,1-2.976-1.725l-7.058-12.3a3.424,3.424,0,0,1,5.939-3.409l7.064,12.3a3.431,3.431,0,0,1-1.268,4.677,3.364,3.364,0,0,1-1.7.457" transform="translate(173.283 424.694)" fill="#f0e433"/>
      <path id="パス_53" data-name="パス 53" d="M54.241,93.979a3.426,3.426,0,0,1-1.455-6.529l12.2-5.711a3.425,3.425,0,0,1,2.9,6.2l-12.2,5.711a3.455,3.455,0,0,1-1.449.325" transform="translate(254.638 408.007)" fill="#f0e433"/>
      <path id="パス_54" data-name="パス 54" d="M45.519,83.438c-.084,0-.174,0-.258-.006L27.918,82.115a3.427,3.427,0,0,1,.517-6.835L45.772,76.6a3.425,3.425,0,0,1-.252,6.841" transform="translate(124.042 377.231)" fill="#f0e433"/>
      <path id="パス_55" data-name="パス 55" d="M67.263,86.689a3.428,3.428,0,0,1-.884-6.739l14.764-3.956a3.426,3.426,0,0,1,1.773,6.619L68.152,86.569a3.238,3.238,0,0,1-.89.12" transform="translate(319.934 380.274)" fill="#f0e433"/>
      <path id="パス_56" data-name="パス 56" d="M40.7,87.948a3.624,3.624,0,0,1-.613-.054l-12.2-2.2A3.427,3.427,0,1,1,29.1,78.948l12.2,2.2a3.427,3.427,0,0,1-.607,6.8" transform="translate(125.644 395.391)" fill="#fff"/>
      <path id="パス_57" data-name="パス 57" d="M59.609,90.568h-.12l-12.841-.439a3.427,3.427,0,0,1-3.312-3.541,3.516,3.516,0,0,1,3.547-3.306l12.841.433a3.428,3.428,0,0,1-.114,6.853" transform="translate(217.168 417.37)" fill="#fff"/>
      <path id="パス_58" data-name="パス 58" d="M31.485,96.057a3.429,3.429,0,0,1-.866-6.745L44.109,85.8a3.427,3.427,0,0,1,1.731,6.631L32.356,95.943a3.371,3.371,0,0,1-.872.114" transform="translate(140.631 429.459)" fill="#fff"/>
      <path id="パス_59" data-name="パス 59" d="M81.272,92.249a3.427,3.427,0,0,1-2.308-.89l-7.707-7.027a3.43,3.43,0,1,1,4.623-5.068l7.7,7.027a3.426,3.426,0,0,1-2.308,5.957" transform="translate(351.515 392.767)" fill="#fff"/>
      <path id="パス_60" data-name="パス 60" d="M40.835,94.251a3.426,3.426,0,0,1-1.04-6.691l14.44-4.611a3.427,3.427,0,1,1,2.086,6.529L41.875,94.089a3.474,3.474,0,0,1-1.04.162" transform="translate(187.465 414.883)" fill="#e61f19"/>
      <path id="パス_61" data-name="パス 61" d="M21.093,94.042a3.424,3.424,0,0,1-2.507-5.759l8.879-9.522a3.428,3.428,0,1,1,5.014,4.677L23.6,92.954a3.428,3.428,0,0,1-2.507,1.088" transform="translate(88.539 389.285)" fill="#69b72d"/>
      <path id="パス_62" data-name="パス 62" d="M48.28,89.024a3.188,3.188,0,0,1-.625-.06l-11.127-2.05a3.426,3.426,0,1,1,1.244-6.739L48.9,82.224a3.428,3.428,0,0,1-.619,6.8" transform="translate(169.001 401.493)" fill="#69b72d"/>
      <path id="パス_63" data-name="パス 63" d="M57.513,102.079a3.424,3.424,0,0,1-3.391-2.958l-1.286-9.372a3.416,3.416,0,0,1,2.922-3.859,3.381,3.381,0,0,1,3.865,2.922l1.286,9.378a3.423,3.423,0,0,1-2.928,3.859,3.12,3.12,0,0,1-.469.03" transform="translate(264.626 430.236)" fill="#69b72d"/>
      <path id="パス_64" data-name="パス 64" d="M67.335,91.86a3.427,3.427,0,0,1-2.615-5.639l4.713-5.567a3.425,3.425,0,1,1,5.23,4.424l-4.707,5.567a3.414,3.414,0,0,1-2.621,1.214" transform="translate(320.288 398.092)" fill="#69b72d"/>
      <path id="パス_65" data-name="パス 65" d="M43.7,97.114A3.428,3.428,0,0,1,42.45,90.5l11.993-4.689a3.427,3.427,0,0,1,2.495,6.384L44.951,96.874a3.42,3.42,0,0,1-1.25.24" transform="translate(201.822 428.846)" fill="#71c6d4"/>
      <path id="パス_66" data-name="パス 66" d="M75.271,83.655a3.426,3.426,0,0,1-.445-6.823l11.127-1.467a3.426,3.426,0,1,1,.9,6.793L75.722,83.624a2.885,2.885,0,0,1-.451.03" transform="translate(360.077 377.55)" fill="#71c6d4"/>
      <path id="パス_67" data-name="パス 67" d="M25,88.439a3.427,3.427,0,0,1-.2-6.847l14.981-.878a3.4,3.4,0,0,1,3.625,3.216,3.434,3.434,0,0,1-3.222,3.625l-14.981.878c-.072.006-.138.006-.2.006" transform="translate(108.163 404.464)" fill="#71c6d4"/>
      <path id="パス_68" data-name="パス 68" d="M103.6,37.753c-6.378,7.5-19.117,7.154-28.453-.775S63.43,16.527,69.808,9.024s19.117-7.16,28.453.775,11.722,20.451,5.344,27.954" transform="translate(331.942 18.106)" fill="#e4547d"/>
      <path id="パス_69" data-name="パス 69" d="M93.875,49.413a28.312,28.312,0,0,1-18.107-6.967C65.013,33.3,62.44,18.592,70.033,9.665c3.769-4.443,9.33-6.8,15.822-6.613a28.431,28.431,0,0,1,17.457,7c10.755,9.144,13.328,23.854,5.735,32.781a19.517,19.517,0,0,1-15.173,6.583M85.194,9.9a12.668,12.668,0,0,0-9.937,4.2C70.1,20.155,72.329,30.525,80.2,37.228s18.473,7.214,23.625,1.166,2.922-16.429-4.953-23.126A21.586,21.586,0,0,0,85.663,9.906c-.156-.006-.313-.006-.469-.006m21.245,30.713h0Z" transform="translate(329.108 15.247)" fill="#040000"/>
      <path id="パス_70" data-name="パス 70" d="M90.885,8.458C79.98,5.2,68.708,3.745,57.653,5.3L69.718,139.431c4.8,3.06,9.318,6.024,13.526,8.849,35.36-52.835,57.8-112.926,7.641-139.822" transform="translate(288.929 23.421)" fill="#fff"/>
      <path id="パス_71" data-name="パス 71" d="M86.1,154.564a3.44,3.44,0,0,1-1.912-.583c-4.184-2.807-8.675-5.759-13.46-8.8a3.442,3.442,0,0,1-1.569-2.585L57.1,8.46a3.43,3.43,0,0,1,2.94-3.7c10.694-1.509,22.375-.4,34.693,3.276a3.246,3.246,0,0,1,.637.265c15.57,8.35,25.4,20.319,29.2,35.576,6.745,27.046-5.242,63.776-35.624,109.169a3.413,3.413,0,0,1-2.182,1.455,3.574,3.574,0,0,1-.661.066M75.834,140.305q4.869,3.111,9.312,6.072c27.479-41.828,38.8-76.653,32.769-100.843C114.627,32.326,106.048,21.89,92.432,14.5a77.131,77.131,0,0,0-28.206-3.318Z" transform="translate(286.071 20.563)" fill="#040000"/>
      <path id="パス_72" data-name="パス 72" d="M249.158,171.51a4.411,4.411,0,0,1-1.653-.319c-58.552-18.678-106.049-31.05-148.449-31.05a165.793,165.793,0,0,0-40.674,4.641c-6.625-9.967-45.976-71.82-29.174-110.468,7.25-16.676,24.25-27.01,50.533-30.737A309.041,309.041,0,0,1,122.6.4c52.2,0,92.722,15.552,117.177,44.966,8.079,9.715,24.605,29.589,15.227,116-.415,3.787-1.719,10.141-5.843,10.141" transform="translate(125.637 1.995)" fill="#fff"/>
      <path id="パス_73" data-name="パス 73" d="M124.614,4.8h0c51.459,0,91.345,15.245,115.457,44.263,7.737,9.294,23.824,28.645,14.548,114.045-.523,4.785-1.912,8-3.457,8a3.288,3.288,0,0,1-.6-.072h0a5.28,5.28,0,0,0-.607-.234c-58.48-18.642-106.176-31.062-148.887-31.062a172.532,172.532,0,0,0-39.6,4.31C52.908,130.907,17.741,73.3,33.413,37.265c6.9-15.858,23.271-25.717,48.675-29.312A305.934,305.934,0,0,1,124.614,4.8M124.608,0A308.492,308.492,0,0,0,81.415,3.2c-113.2,16.015-22.068,146.314-22.068,146.314a163.834,163.834,0,0,1,41.72-4.984c44.521,0,95.114,14.157,147.433,30.833a6.786,6.786,0,0,0,2.663.535c2.837,0,7.088-1.834,8.224-12.282,9.546-87.913-7.484-107.835-15.768-117.8C236.494,37.247,205.331,0,124.608,0" transform="translate(123.632)" fill="#040000"/>
      <path id="パス_74" data-name="パス 74" d="M241.257,164.662c-61.7-19.724-124.072-30.617-173.463-20.9a16.265,16.265,0,0,1-17.2-7.659C32.759,105.8-10.758,17.464,78.663,4.226,186.888-11.795,225.6,35.252,233.472,44.882s25.537,21,16.039,106.344c-1.737,15.618-8.254,13.436-8.254,13.436" transform="translate(121.304 4.653)" fill="#e4547d"/>
      <path id="パス_75" data-name="パス 75" d="M244.892,171.018a6.173,6.173,0,0,1-1.876-.271C172.874,148.324,115.1,141.333,71.261,149.941a19.733,19.733,0,0,1-20.818-9.282C38.516,120.4,12.553,69.585,28.892,35.4,37.1,18.241,54.615,7.558,80.964,3.657,152.146-6.857,208.234,8,238.928,45.539c.619.757,1.292,1.521,2.02,2.332,8.849,9.985,23.661,26.685,14.77,106.56-.89,8.007-3.084,13.027-6.709,15.335a7.558,7.558,0,0,1-4.118,1.25M110.715,139.529c37.927,0,82.857,8.236,134.2,24.635.655-.06,3.042-1.942,3.992-10.49,8.554-76.851-5-92.127-13.087-101.258-.788-.884-1.527-1.719-2.2-2.543C204.513,14.279,150.655.278,81.968,10.438c-23.956,3.547-39.73,12.943-46.9,27.924-14.921,31.212,9.907,79.508,21.275,98.823a12.893,12.893,0,0,0,13.592,6.036,211.808,211.808,0,0,1,40.776-3.691" transform="translate(118.499 1.826)" fill="#040000"/>
      <path id="パス_76" data-name="パス 76" d="M60.79,10.8C52.3,4.9,39.708,3.308,32.1,10.306c-4.4,4.052-6.348,10.226-6.5,16.2s1.28,11.861,2.7,17.668q4.148,16.9,8.29,33.8c2.669,10.863,9.162,34.452,24.563,32.456,8.458-1.094,14.782-9.45,12.937-16.88" transform="translate(128.23 28.481)" fill="#f5e661"/>
      <path id="パス_77" data-name="パス 77" d="M61.288,114.919c-16.574,0-22.9-25.717-25.038-34.41L27.966,46.718C26.517,40.8,25.033,34.7,25.2,28.413c.192-7.4,2.771-13.76,7.28-17.9,8.735-8.049,22.844-5.861,31.681.289a2.4,2.4,0,0,1-2.747,3.938c-7.3-5.086-18.786-7.052-25.687-.7-3.487,3.21-5.579,8.494-5.735,14.5-.144,5.645,1.262,11.428,2.627,17.013l8.3,33.815c5.368,21.846,12.57,31.879,21.924,30.653a13.4,13.4,0,0,0,9.144-5.7A10.317,10.317,0,0,0,73.756,96.1a2.4,2.4,0,0,1,4.659-1.16,15.128,15.128,0,0,1-2.471,12.083,18.229,18.229,0,0,1-12.486,7.755,16.865,16.865,0,0,1-2.17.144" transform="translate(126.229 26.514)" fill="#040000"/>
      <path id="パス_78" data-name="パス 78" d="M61.434,7.421c1.569,12.33,5.308,41.8,3.709,54.122a77.89,77.89,0,0,1-4.491,15.768c-2.723,6.108-10.544,11.434-17.217,7.635a16.164,16.164,0,0,1-6.426-6.4,92.394,92.394,0,0,1-7.046-17.367" transform="translate(150.165 37.191)" fill="#f5e661"/>
      <path id="パス_79" data-name="パス 79" d="M50.2,90.624a11.96,11.96,0,0,1-5.957-1.593,18.547,18.547,0,0,1-7.322-7.3,91.987,91.987,0,0,1-7.25-17.83,2.4,2.4,0,0,1,4.581-1.437,88.28,88.28,0,0,0,6.841,16.9,13.8,13.8,0,0,0,5.531,5.5,7.449,7.449,0,0,0,6.21.517,13.6,13.6,0,0,0,7.635-7.046,76.486,76.486,0,0,0,4.292-15.107C66.328,51.194,62.5,21.064,61.055,9.721a2.4,2.4,0,0,1,4.761-.6c1.6,12.594,5.35,42.081,3.7,54.729A79.418,79.418,0,0,1,64.849,80.29a18.413,18.413,0,0,1-10.514,9.655,13.349,13.349,0,0,1-4.13.679" transform="translate(148.164 35.192)" fill="#040000"/>
      <path id="パス_80" data-name="パス 80" d="M31.185,14.191c-.084-.427-.234-1.834-.313-2.266" transform="translate(154.716 59.762)" fill="#f5e661"/>
      <path id="パス_81" data-name="パス 81" d="M33.18,18.588a2.391,2.391,0,0,1-2.344-1.924c-.054-.258-.132-.83-.2-1.395l-.126-.92A2.4,2.4,0,0,1,35.23,13.5c.042.228.1.691.168,1.172.048.415.1.848.138,1.052a2.4,2.4,0,0,1-1.882,2.813,1.859,1.859,0,0,1-.475.054" transform="translate(152.714 57.764)" fill="#040000"/>
      <path id="パス_82" data-name="パス 82" d="M30.781,41.768a73.493,73.493,0,0,1,.228-10.226c.637-6.841,2.357-13.814,6.583-19.231C46.23,1.238,62.636,1.923,71.413,12.84c4.545,5.651,4.905,10.833,6.054,17.716,1.311,7.893,1.659,15.888,2.729,23.836,2.14,15.84.872,28.338.12,44.3-.018.319-.03.643-.048.962-.144,2.819-.367,5.747-1.755,8.2-5.044,8.879-18.63,4.731-22.4-2.928-1.821-3.7-1.942-7.971-2.266-12.083-.7-8.747-1.659-12.72-2.278-22.429" transform="translate(153.845 21.666)" fill="#f5e661"/>
      <path id="パス_83" data-name="パス 83" d="M71.554,117.271c-.15,0-.3,0-.451-.006-6.222-.18-12.594-4.082-15.149-9.27-1.828-3.709-2.122-7.713-2.4-11.584l-.1-1.371c-.307-3.877-.673-6.805-1.034-9.721-.451-3.673-.9-7.328-1.244-12.744a2.4,2.4,0,0,1,4.785-.307c.337,5.3.781,8.873,1.22,12.462.367,2.982.739,5.969,1.058,9.931l.1,1.4c.264,3.571.511,6.943,1.924,9.811,1.785,3.631,6.51,6.468,10.989,6.6a7.488,7.488,0,0,0,7.178-3.8c1.1-1.936,1.3-4.382,1.443-7.136l2.447-.836-2.4-.114.4-7.629c.673-12.468,1.262-23.229-.5-36.243-.463-3.433-.788-6.865-1.118-10.3-.421-4.437-.86-9.029-1.6-13.466l-.367-2.284c-.9-5.693-1.557-9.8-5.188-14.325A20.011,20.011,0,0,0,55.93,8.727h-.144a17.986,17.986,0,0,0-14.307,7.064c-3.366,4.316-5.362,10.2-6.084,17.98a71.358,71.358,0,0,0-.222,9.883,2.392,2.392,0,0,1-2.278,2.513,2.344,2.344,0,0,1-2.513-2.284,77.321,77.321,0,0,1,.234-10.556C31.434,24.6,33.748,17.9,37.7,12.839A22.991,22.991,0,0,1,55.756,3.93a24.827,24.827,0,0,1,19.525,9.408c4.43,5.513,5.242,10.64,6.186,16.58l.361,2.248c.763,4.6,1.214,9.276,1.641,13.8.325,3.372.649,6.745,1.1,10.111,1.815,13.466,1.22,24.437.529,37.145l-.391,7.593-.048.974c-.162,3.246-.451,6.4-2.062,9.258a12.283,12.283,0,0,1-11.043,6.228" transform="translate(151.846 19.665)" fill="#040000"/>
      <path id="パス_84" data-name="パス 84" d="M81.669,46.325c.385-10.442.421-21.966-6.372-29.907a21.308,21.308,0,0,0-9.558-6.384c-9.823-3.21-21.641,1.9-26.03,11.248-2.6,5.519-2.729,11.849-2.615,17.944q.18,10.442,1.1,20.86a54.484,54.484,0,0,0,2.537,13.881c1.611,4.437,4.4,8.59,8.452,11.013,5.969,3.565,13.965,2.687,19.712-1.238s9.354-10.46,10.791-17.265.9-13.881-.319-20.728" transform="translate(185.759 45.471)" fill="#f5e661"/>
      <path id="パス_85" data-name="パス 85" d="M59.713,91.633a19.006,19.006,0,0,1-9.763-2.585A23.318,23.318,0,0,1,40.476,76.79,56.825,56.825,0,0,1,37.8,62.3c-.613-6.985-.986-14.061-1.106-21.028-.114-6.312.006-12.985,2.843-19.008,4.935-10.5,17.932-16.1,28.951-12.5a23.623,23.623,0,0,1,10.634,7.1c7.172,8.392,7.364,20.193,6.943,31.56a2.4,2.4,0,0,1-1.8,2.236,51.84,51.84,0,0,1-.234,18.323c-1.677,7.953-5.982,14.788-11.789,18.75a22.348,22.348,0,0,1-12.528,3.9M61.6,13.483c-7.256,0-14.632,4.244-17.728,10.827C41.48,29.4,41.384,35.437,41.492,41.19c.12,6.859.487,13.82,1.088,20.692a52.449,52.449,0,0,0,2.411,13.279,18.54,18.54,0,0,0,7.418,9.769c4.851,2.892,11.9,2.417,17.127-1.166,4.8-3.27,8.374-9.023,9.8-15.78,1.19-5.6,1.082-11.891-.337-19.808A2.39,2.39,0,0,1,80.94,45.4a2.1,2.1,0,0,1,.427-.042c.234-9.781-.373-18.924-5.891-25.375A19.035,19.035,0,0,0,67,14.325a17.318,17.318,0,0,0-5.4-.842" transform="translate(183.76 43.464)" fill="#040000"/>
      <path id="パス_86" data-name="パス 86" d="M85.629,42A25.673,25.673,0,0,0,84.313,21.61,22.311,22.311,0,0,0,67.745,10,19.739,19.739,0,0,0,49.41,18.015c-3.673,5.332-4.25,12.143-4.707,18.612q-.676,9.54-1.347,19.087c-.613,8.7-.812,18.588,5.368,24.743,5.032,5,13.3,5.855,19.814,3.042s11.308-8.771,13.953-15.347S85.84,54.366,85.93,47.273" transform="translate(215.831 49.398)" fill="#f5e661"/>
      <path id="パス_87" data-name="パス 87" d="M62.788,89.492a19.525,19.525,0,0,1-13.76-5.326c-6.847-6.829-6.727-17.325-6.066-26.613L44.309,38.46c.433-6.138.974-13.778,5.122-19.8a22.179,22.179,0,0,1,20.6-9.041,24.676,24.676,0,0,1,18.4,12.871A28.171,28.171,0,0,1,89.888,44.8a2.4,2.4,0,1,1-4.521-1.593A23.35,23.35,0,0,0,84.2,24.742,19.823,19.823,0,0,0,69.449,14.378a17.382,17.382,0,0,0-16.063,7c-3.409,4.947-3.877,11.578-4.292,17.427L47.747,57.89c-.583,8.236-.745,17.475,4.665,22.874C56.524,84.845,63.582,85.9,69.581,83.3,75,80.956,79.62,75.84,82.266,69.257c2.146-5.344,3.156-11.518,3.264-20.006a2.3,2.3,0,0,1,2.429-2.369,2.4,2.4,0,0,1,2.369,2.423c-.12,9.119-1.232,15.822-3.613,21.744C83.6,78.792,78.051,84.857,71.487,87.707a22.028,22.028,0,0,1-8.7,1.785" transform="translate(213.832 47.396)" fill="#040000"/>
      <path id="パス_88" data-name="パス 88" d="M71.882,102.371c-2.97,4.617-9.7,5.681-14.446,3.186S49.826,97.833,48.8,92.482s-.469-10.9.09-16.351q2.39-23.2,4.785-46.409c.451-4.382.938-8.885,2.94-12.829a18.046,18.046,0,0,1,18.63-9.462c16.959,3.036,14.566,24.521,15.408,37.614-.018-.649-.03-1.3-.048-1.954" transform="translate(241.709 36.032)" fill="#f5e661"/>
      <path id="パス_89" data-name="パス 89" d="M64.928,111.3a14.152,14.152,0,0,1-6.607-1.617c-4.984-2.627-8.584-8-9.871-14.752-1.1-5.711-.511-11.47.06-17.043L53.3,31.482c.451-4.346.956-9.276,3.186-13.67A20.329,20.329,0,0,1,77.672,7.076C94.047,10,94.492,27.755,94.823,40.71c.03,1.3.06,2.567.108,3.781a2.3,2.3,0,0,1,.078.541l.048,1.954a2.393,2.393,0,0,1-2.29,2.459,2.368,2.368,0,0,1-2.5-2.242c-.126-1.966-.18-4.118-.24-6.372-.385-15.179-1.6-26.956-13.2-29.036a15.619,15.619,0,0,0-16.063,8.194c-1.827,3.6-2.266,7.863-2.693,11.987L53.283,78.384c-.535,5.224-1.088,10.622-.126,15.648,1,5.236,3.763,9.5,7.4,11.41,3.457,1.815,8.957,1.3,11.314-2.363a2.4,2.4,0,0,1,4.034,2.591A12.951,12.951,0,0,1,64.928,111.3" transform="translate(239.706 34.031)" fill="#040000"/>
      <path id="パス_90" data-name="パス 90" d="M68.866,49.5c.168-11.789,1.2-26.1,9.606-35.3,9.588-10.49,28.471-6.739,30.514,8.158.812,5.891-1.034,11.849-2.958,17.524a551.678,551.678,0,0,1-22.435,55.5C80.09,102.9,73.429,110,64.538,106.828c-5.723-2.044-9.673-7.55-11.47-13.436s-1.779-12.2-1.737-18.4c0-.655.006-1.311.012-1.96" transform="translate(257.187 41.308)" fill="#f5e661"/>
      <path id="パス_91" data-name="パス 91" d="M70.735,111.985a14.829,14.829,0,0,1-5.008-.89c-5.885-2.1-10.731-7.713-12.955-15-1.93-6.306-1.882-13.111-1.84-19.117l.012-1.96a2.4,2.4,0,0,1,2.4-2.381h.018a2.4,2.4,0,0,1,2.381,2.417L55.73,77c-.042,5.951-.084,12.089,1.629,17.7,1.785,5.843,5.519,10.286,9.985,11.885,8.741,3.114,14.157-6.1,16.075-10.208a552.123,552.123,0,0,0,22.339-55.258c1.918-5.645,3.577-11.157,2.849-16.423a13.384,13.384,0,0,0-9.618-11.32,16.213,16.213,0,0,0-16.748,4.455c-7.587,8.3-8.795,21.112-8.975,33.719a2.3,2.3,0,0,1-2.435,2.363,2.4,2.4,0,0,1-2.362-2.435c.18-12.9,1.539-27.37,10.232-36.881a21.065,21.065,0,0,1,21.72-5.8,18.245,18.245,0,0,1,12.943,15.251c.866,6.3-.956,12.4-3.06,18.618A556.9,556.9,0,0,1,87.765,98.4c-4.07,8.729-10.316,13.586-17.031,13.586" transform="translate(255.186 39.301)" fill="#040000"/>
      <path id="パス_92" data-name="パス 92" d="M46.848,15.1c1.106,2.435,1.6,6.835,1.274,10.737s-1.088,8.458-2.621,11.5" transform="translate(228.029 75.674)" fill="#f5e661"/>
      <path id="パス_93" data-name="パス 93" d="M47.494,41.736a2.4,2.4,0,0,1-2.128-3.487c1.154-2.29,2-6.06,2.369-10.6.295-3.529-.156-7.544-1.076-9.552a2.4,2.4,0,0,1,4.376-1.984c1.25,2.753,1.846,7.55,1.473,11.927-.295,3.643-1.034,8.747-2.874,12.384a2.384,2.384,0,0,1-2.14,1.317" transform="translate(226.031 73.674)" fill="#040000"/>
      <path id="パス_94" data-name="パス 94" d="M39.742,14.535c1.25,2.363,2,6.727,1.918,10.64s-.577,8.512-1.93,11.638" transform="translate(199.108 72.842)" fill="#f5e661"/>
      <path id="パス_95" data-name="パス 95" d="M41.731,41.215a2.35,2.35,0,0,1-.956-.2,2.4,2.4,0,0,1-1.244-3.156c1.022-2.357,1.635-6.168,1.731-10.731.078-3.553-.613-7.532-1.641-9.468a2.4,2.4,0,1,1,4.238-2.248c1.413,2.663,2.3,7.412,2.2,11.819-.078,3.655-.511,8.8-2.128,12.54a2.4,2.4,0,0,1-2.2,1.443" transform="translate(197.107 70.839)" fill="#040000"/>
      <path id="パス_96" data-name="パス 96" d="M73.259,21.252a8.42,8.42,0,1,1-4.653-10.959,8.424,8.424,0,0,1,4.653,10.959" transform="translate(285.827 48.494)" fill="#fff"/>
      <path id="パス_97" data-name="パス 97" d="M50.922,16.862a5.178,5.178,0,1,1-3.409-6.48,5.18,5.18,0,0,1,3.409,6.48" transform="translate(204.465 50.852)" fill="#fff"/>
      <path id="パス_98" data-name="パス 98" d="M56.308,17.546a5.178,5.178,0,1,1-3.409-6.48,5.18,5.18,0,0,1,3.409,6.48" transform="translate(231.458 54.28)" fill="#fff"/>
      <path id="パス_99" data-name="パス 99" d="M153.909,88.641c-4.959-25.771-26.366-52.378-48.236-66.247C94.786,15.493,82.426,9.144,69.556,5.3c50.16,26.9,27.719,86.987-7.647,139.822.475.319.944.637,1.413.95,22.549,15.239,35.66,26.186,35.66,26.186s8.681,6.535,15.708-5.807c13.76-24.172,45.267-46.379,39.219-77.813" transform="translate(310.258 26.576)" fill="#e4547d"/>
      <path id="パス_100" data-name="パス 100" d="M107.3,180.28a13.267,13.267,0,0,1-7.526-2.423c-.265-.216-13.4-11.133-35.522-26.084l-1.395-.938a3.433,3.433,0,0,1-.944-4.755c28.849-43.1,40.836-78.961,34.668-103.7-3.318-13.3-11.993-23.806-25.8-31.2a3.429,3.429,0,0,1,2.6-6.306c11.783,3.523,24.22,9.4,36.971,17.482,24.533,15.558,45,43.722,49.769,68.5,4.527,23.553-10.081,41.6-24.214,59.057-5.861,7.238-11.4,14.079-15.39,21.094-2.916,5.11-6.535,8.146-10.761,9.023a12.388,12.388,0,0,1-2.465.252m-3.276-7.8a6.4,6.4,0,0,0,4.424.818c2.723-.6,4.833-3.421,6.12-5.687,4.268-7.5,10.244-14.885,16.021-22.02,13.141-16.231,26.733-33.021,22.808-53.442-4.436-23.06-23.643-49.379-46.7-64q-6.943-4.4-13.706-7.869a51.242,51.242,0,0,1,10.244,20.451c6.607,26.475-4.743,62.237-33.737,106.32,21.407,14.548,34.188,25.146,34.53,25.435" transform="translate(307.401 23.721)" fill="#040000"/>
      <path id="パス_101" data-name="パス 101" d="M77.081,36.489c-16.922,5.537-19.664,9.739-23.048,35.342-3.384-25.429-6.126-29.5-23.048-34.169C47.907,32.131,50.649,27.923,54.033,2.32c3.384,25.435,6.126,29.5,23.048,34.169" transform="translate(155.282 11.627)" fill="#fff"/>
    </g>
  </g>
</svg>
